<?xml version="1.0" encoding="iso-8859-1"?>
<!-- Uploaded to: SVG Repo, www.svgrepo.com, Generator: SVG Repo Mixer Tools -->
<svg version="1.1" id="Layer_1" xmlns="http://www.w3.org/2000/svg" xmlns:xlink="http://www.w3.org/1999/xlink" 
	 viewBox="0 0 511.999 511.999" xml:space="preserve">
<path style="fill:#333E48;" d="M132.113,224.012H70.132c-12.22,0-22.979,8.05-26.429,19.773l-2.593,8.811h120.023l-2.592-8.811
	C155.092,232.062,144.333,224.012,132.113,224.012z"/>
<path style="opacity:0.15;enable-background:new    ;" d="M158.542,243.786c-0.338-1.152-0.768-2.256-1.241-3.331H44.945
	c-0.474,1.077-0.903,2.181-1.241,3.331l-2.593,8.811h120.023L158.542,243.786z"/>
<path style="fill:#FFD13F;" d="M260.184,227.618l-40.732-13.739l19.686-58.363c10.401-30.837,36.695-53.925,68.619-60.254
	l77.683-15.4l8.359,42.165l-77.683,15.4c-16.863,3.343-30.752,15.538-36.245,31.827L260.184,227.618z"/>
<path style="opacity:0.08;enable-background:new    ;" d="M385.438,79.86l-24.268,4.81l0.008,27.794
	c0.001,5.292,0.663,10.542,1.922,15.647l30.697-6.086L385.438,79.86z"/>
<path style="fill:#FFD13F;" d="M416.601,91.023l-31.216-17.916c-3.811-2.188-8.562,0.564-8.561,4.959l0.012,40.533
	c0.003,9.573,2.206,19.018,6.438,27.605l48.904,99.218l28.17-10.253l-27.115-121.553C431.107,104.083,425.071,95.884,416.601,91.023
	z"/>
<path style="opacity:0.08;enable-background:new    ;" d="M455.152,211.868c-1.511,0.27-3.015,0.657-4.491,1.194l-20.362,7.412
	c-3.049,1.109-5.762,2.731-8.086,4.729l9.966,20.22l28.17-10.253L455.152,211.868z"/>
<path style="fill:#FFD13F;" d="M481.03,299.908l-74.867,27.249c-5.101,1.857-9.703-3.729-6.904-8.382l17.494-29.069
	c4.804-7.983,5.744-17.709,2.558-26.463l0,0c-4.931-13.547,2.054-28.526,15.6-33.456l20.362-7.412
	c10.461-3.807,22.185-0.794,29.514,7.585l9.719,11.111c7.475,8.546,10.815,19.945,9.132,31.174l0,0
	C501.741,284.913,493.066,295.527,481.03,299.908z"/>
<rect x="53.297" y="326.74" style="fill:#C3C6C8;" width="179.18" height="31.957"/>
<rect x="53.297" y="326.74" style="opacity:0.1;enable-background:new    ;" width="179.18" height="15.979"/>
<path style="fill:#FFD13F;" d="M312.346,224.693l-6.882-31.738c-2.277-10.502-11.569-17.994-22.314-17.994h-64.022
	c-8.524,0-15.435,6.911-15.435,15.435v62.2H30.389c-6.457,0-11.69,5.233-11.69,11.69v50.757c0,6.457,5.235,11.692,11.69,11.692
	h274.147c7.656,0,13.861-6.206,13.861-13.861v-31.724C318.397,262.167,316.369,243.242,312.346,224.693z"/>
<path style="fill:#333E48;" d="M312.347,224.694l-6.882-31.739c-2.277-10.502-11.568-17.994-22.314-17.994h-64.022
	c-8.524,0-15.435,6.911-15.435,15.435v62.2h-42.559v27.339c0,7.753,6.285,14.038,14.038,14.038h143.225v-12.826
	C318.397,262.168,316.369,243.242,312.347,224.694z"/>
<path style="fill:#57C9E8;" d="M274.02,200.145h-36.166c-4.944,0-8.952,4.008-8.952,8.952v34.548c0,4.944,4.007,8.952,8.952,8.952
	h37.739c3.508,0,6.693-2.05,8.147-5.242l2.756-6.053c1.406-3.089,1.804-6.544,1.136-9.872l-4.836-24.095
	C281.957,203.154,278.285,200.145,274.02,200.145z"/>
<g>
	<path style="opacity:0.2;fill:#FFFFFF;enable-background:new    ;" d="M287.632,231.43l-3.55-17.685l-38.851,38.851h30.361
		c3.508,0,6.693-2.05,8.147-5.242l2.756-6.053C287.903,238.212,288.3,234.759,287.632,231.43z"/>
	<path style="opacity:0.2;fill:#FFFFFF;enable-background:new    ;" d="M237.854,200.145c-4.944,0-8.952,4.008-8.952,8.952v15.218
		l24.169-24.169h-15.217V200.145z"/>
</g>
<path style="fill:#333E48;" d="M288.675,439.672H48.421c-22.363,0-40.49-18.128-40.49-40.49l0,0
	c0-22.363,18.128-40.491,40.49-40.491h240.254c22.362,0,40.491,18.128,40.491,40.491l0,0
	C329.165,421.543,311.036,439.672,288.675,439.672z"/>
<rect x="48.421" y="378.937" style="opacity:0.2;enable-background:new    ;" width="240.249" height="40.491"/>
<g>
	<circle style="fill:#F0EFEF;" cx="48.421" cy="399.177" r="20.24"/>
	<circle style="fill:#F0EFEF;" cx="288.671" cy="399.177" r="20.24"/>
</g>
<g style="opacity:0.1;">
	<path d="M105.704,285.291H53.293c-4.38,0-7.931-3.55-7.931-7.931c0-4.381,3.551-7.931,7.931-7.931h52.411
		c4.38,0,7.931,3.55,7.931,7.931C113.635,281.74,110.084,285.291,105.704,285.291z"/>
	<path d="M105.704,306.435H53.293c-4.38,0-7.931-3.55-7.931-7.931c0-4.381,3.551-7.931,7.931-7.931h52.411
		c4.38,0,7.931,3.55,7.931,7.931C113.635,302.884,110.084,306.435,105.704,306.435z"/>
</g>
<path style="fill:#FF495C;" d="M161.134,269.871v10.066c0,7.753,6.285,14.038,14.038,14.038h10.065L161.134,269.871z"/>
<path d="M237.854,192.214c-9.309,0-16.883,7.574-16.883,16.883v34.548c0,9.309,7.574,16.883,16.883,16.883h37.739
	c6.598,0,12.628-3.88,15.365-9.887l2.756-6.052c2.111-4.636,2.697-9.726,1.694-14.719l-4.836-24.095
	c-1.577-7.858-8.538-13.56-16.553-13.56L237.854,192.214L237.854,192.214z M275.02,208.896l4.836,24.096
	c0.343,1.704,0.143,3.441-0.577,5.024l-2.755,6.051c-0.166,0.364-0.53,0.599-0.93,0.599h-37.739c-0.563,0-1.02-0.458-1.02-1.02
	v-34.548c0-0.563,0.458-1.02,1.02-1.02h36.166C274.504,208.077,274.925,208.42,275.02,208.896z M500.476,235.849l-9.718-11.11
	c-6.627-7.577-16.202-11.922-26.269-11.922c-0.332,0-0.663,0.013-0.994,0.022l-22.52-100.95
	c-2.605-11.676-10.049-21.788-20.425-27.744L389.334,66.23c-4.272-2.452-9.368-2.445-13.633,0.024
	c-3.348,1.938-5.613,5.085-6.441,8.728l-63.046,12.498c-34.703,6.88-63.285,31.978-74.591,65.499l-4.74,14.051h-7.756
	c-12.884,0-23.366,10.482-23.366,23.366v54.269h-28.695l-0.918-3.119c-4.411-14.994-18.408-25.465-34.037-25.465h-61.98
	c-15.63,0-29.626,10.471-34.037,25.465l-0.918,3.119h-4.788c-10.819,0-19.622,8.801-19.622,19.622v50.757
	c0,10.819,8.802,19.623,19.622,19.623h14.973v16.2C20.084,352.45,0,373.51,0,399.182c0,26.699,21.722,48.421,48.421,48.421h240.254
	c26.7,0,48.422-21.722,48.422-48.421c0-26.7-21.722-48.422-48.422-48.422h-48.268v-16.094h64.129
	c12.016,0,21.793-9.776,21.793-21.793v-31.724c0-19.508-2.096-39.069-6.232-58.136l-6.882-31.738
	c-2.618-12.078-12.338-21.287-24.144-23.64c5.379-11.497,15.979-19.931,28.587-22.43l53.125-10.533
	c1.22,5.198,3.022,10.258,5.378,15.037l41.085,83.354c-1.663,2.09-3.095,4.385-4.252,6.867c-3.842,8.239-4.246,17.481-1.137,26.024
	c2.379,6.536,1.687,13.702-1.9,19.662l-17.494,29.069c-2.58,4.288-2.659,9.434-0.209,13.766c2.442,4.319,6.997,7.002,11.887,7.002
	c1.603,0,3.197-0.284,4.734-0.844l74.867-27.249c14.78-5.379,25.41-18.385,27.741-33.941
	C513.514,259.863,509.502,246.168,500.476,235.849z M70.132,231.943h61.98c8.161,0,15.51,5.166,18.358,12.722H51.774
	C54.622,237.109,61.973,231.943,70.132,231.943z M288.675,366.622c17.953,0,32.56,14.607,32.56,32.56
	c0,17.954-14.606,32.559-32.56,32.559H48.421c-17.953,0-32.559-14.606-32.559-32.559c0-17.954,14.606-32.56,32.559-32.56H288.675z
	 M61.224,350.759v-16.094h163.32v16.094H61.224z M310.466,312.873c0,3.271-2.661,5.93-5.93,5.93H30.389
	c-2.074,0-3.759-1.687-3.759-3.76v-50.757c0-2.073,1.687-3.759,3.759-3.759h122.814v19.408c0,12.115,9.855,21.969,21.969,21.969
	h135.294V312.873z M297.714,194.635l6.882,31.739c3.896,17.965,5.871,36.393,5.871,54.774v4.895H175.172
	c-3.367,0-6.107-2.74-6.107-6.107v-19.408h34.628c4.38,0,7.931-3.55,7.931-7.931v-62.2c0-4.137,3.366-7.504,7.504-7.504h64.022
	C290.114,182.893,296.238,187.831,297.714,194.635z M314.573,129.646c-19.642,3.894-35.819,18.098-42.218,37.072l-0.106,0.312
	h-28.626l3.03-8.981c9.496-28.152,33.5-49.231,62.645-55.01l59.598-11.815l0.008,27.377c0,0.091,0.007,0.182,0.008,0.273
	L314.573,129.646z M390.389,142.698c-3.675-7.456-5.618-15.79-5.621-24.101l-0.011-36.706l27.896,16.011
	c6.521,3.743,11.202,10.101,12.839,17.44l22.579,101.215l-15.873,5.778c-0.724,0.263-1.432,0.557-2.131,0.866L390.389,142.698z
	 M495.796,271.07c-1.469,9.801-8.166,17.996-17.479,21.385l-69.097,25.149l14.328-23.809c6.068-10.083,7.24-22.208,3.215-33.266
	c-1.66-4.561-1.445-9.495,0.606-13.894c2.052-4.399,5.692-7.735,10.254-9.396l20.362-7.412c2.094-0.762,4.282-1.149,6.502-1.149
	c5.491,0,10.714,2.37,14.329,6.504l9.719,11.11C494.489,253.098,497.135,262.129,495.796,271.07z"/>
</svg>